<svg xmlns="http://www.w3.org/2000/svg" viewBox="0 0 800 800">
  <a href="https://minersstudios.com">
    <path fill="white" d="m496.63414,182.7971a93613.76,93613.76 0 0 0 -96.7,240.5a84213.88,84213.88 0 0 0 -96.61,-240.5c-8.91,-22.06 -17.46,-43.42 -33.01,-57.96c-15.68,-14.67 -37.8,-21.57 -60.3,-21.38c-22.26,0.18 -43.9,7.5 -60.83,21.38c-17.23,14.12 -28.62,34.43 -32.73,57.96l-41.96,240.35c-22.6,-3.36 -43.2,4.64 -56.87,20.4c-15.73,18.17 -20.19,44.39 -14.5,72.3l36.77,180.7a522.93,522.93 0 0 1 74.3,-61.23a486.29,486.29 0 0 1 78.34,-43.25l34.47,-217.43l56.2,186.85a487.37,487.37 0 0 1 116.73,-13.77a489.1,489.1 0 0 1 117.02,14.73l55.97,-187.81l34.5,217.43a493.26,493.26 0 0 1 77.63,43.25a534.11,534.11 0 0 1 74.3,61.23l37.47,-180.7c5.79,-27.9 1.28,-54.14 -14.5,-72.3c-13.72,-15.75 -34.37,-23.7 -56.98,-20.26l-41.84,-240.49c-4.1,-23.53 -15.5,-43.84 -32.73,-57.96c-16.93,-13.87 -38.57,-21.2 -60.84,-21.38c-22.5,-0.2 -44.61,6.71 -60.3,21.38c-15.55,14.54 -24.1,35.9 -33,57.96z"/>
  </a>
</svg>
